<svg xmlns="http://www.w3.org/2000/svg" viewBox="0 0 62 62"><g fill="none" transform="translate(1 1)"><rect width="60" height="60" fill="#FFF" stroke="#E5E6E9" rx="16"/><path fill="#000" d="M45.066 27.277a8.791 8.791 0 0 0-.75-7.177 8.767 8.767 0 0 0-9.46-4.239 8.783 8.783 0 0 0-8.376-2.746 8.832 8.832 0 0 0-6.556 5.92 8.7 8.7 0 0 0-5.81 4.238 8.876 8.876 0 0 0 1.08 10.372 8.784 8.784 0 0 0 .743 7.177 8.774 8.774 0 0 0 9.466 4.239A8.675 8.675 0 0 0 31.955 48c3.828.003 7.218-2.482 8.388-6.147a8.707 8.707 0 0 0 5.809-4.239 8.89 8.89 0 0 0-1.086-10.337Zm-13.11 18.427a6.481 6.481 0 0 1-4.18-1.521l.205-.118 6.944-4.03c.352-.208.569-.587.57-.997v-9.846l2.936 1.708c.03.015.05.044.055.076v8.16c-.007 3.624-2.927 6.56-6.53 6.568Zm-14.04-6.03a6.566 6.566 0 0 1-.776-4.404l.206.125 6.95 4.03c.35.207.785.207 1.135 0l8.49-4.922v3.408a.118.118 0 0 1-.048.09l-7.033 4.08c-3.125 1.81-7.118.734-8.923-2.406Zm-1.828-15.211a6.527 6.527 0 0 1 3.437-2.883v8.297c-.005.408.211.787.564.989l8.45 4.902-2.936 1.708a.11.11 0 0 1-.103 0l-7.02-4.073c-3.119-1.818-4.188-5.83-2.392-8.975v.035Zm24.117 5.635-8.477-4.95 2.929-1.702a.11.11 0 0 1 .103 0l7.02 4.08a6.579 6.579 0 0 1 3.244 6.236 6.564 6.564 0 0 1-4.228 5.608v-8.297a1.155 1.155 0 0 0-.591-.975Zm2.922-4.418-.206-.125-6.937-4.065a1.122 1.122 0 0 0-1.141 0l-8.484 4.923v-3.409a.097.097 0 0 1 .041-.09l7.02-4.073a6.507 6.507 0 0 1 7.004.305 6.593 6.593 0 0 1 2.703 6.506v.028Zm-18.37 6.043-2.935-1.701a.118.118 0 0 1-.056-.083v-8.138a6.578 6.578 0 0 1 3.766-5.947 6.508 6.508 0 0 1 6.953.9l-.207.117-6.943 4.03a1.163 1.163 0 0 0-.571.996l-.007 9.826Zm1.595-3.457 3.781-2.192 3.788 2.192v4.383l-3.774 2.192-3.788-2.192-.007-4.383Z"/></g></svg>